<svg id="Capa_14_copia" data-name="Capa 14 copia" xmlns="http://www.w3.org/2000/svg" viewBox="0 0 1284.45 301.01"><defs><style>.cls-1,.cls-3{fill:#07326b;}.cls-1,.cls-2{fill-rule:evenodd;}.cls-2{fill:#f77f00;}</style></defs><polygon class="cls-1" points="132.84 145.36 132.35 239.15 207.93 196.56 209.32 102.98 132.84 145.36"/><polygon class="cls-1" points="129.19 239.09 129.67 145.35 54.21 103.48 55.14 195.17 129.19 239.09"/><polygon class="cls-2" points="134.42 301.01 258.61 224.15 221.11 202.59 132.39 255.11 134.42 301.01"/><polygon class="cls-2" points="314.14 99.43 315 98.91 315.84 99.45 325.13 105.53 324.5 75.41 272.74 76.3 273.29 76.62 275.67 78.01 273.27 79.37 224.58 107.61 262.68 129.82 314.14 99.43"/><polygon class="cls-2" points="219.92 95.58 257.82 72.9 129.28 0 1.53 74.94 40.03 96.93 129.82 43.96 130.62 43.49 131.42 43.95 219.92 95.58"/><path class="cls-2" d="M58,99.45l2.41,147,128.84,76.21-2-45.76L98.14,225.39h0a1.58,1.58,0,0,1-.79-1.5l-.87-102.47Z" transform="translate(-58 -21.75)"/><polygon class="cls-2" points="208.51 150.57 209.21 110.37 167.05 134.97 167.05 175.27 208.51 150.57"/><polygon class="cls-1" points="55.96 101.08 131.26 142.62 207.62 100.31 130.27 59.45 55.96 101.08"/><path class="cls-3" d="M465.37,173.4h-58c-9.26,1.83-15,8.34-17.68,16.38a41.66,41.66,0,0,0-1.84,15.85,44.32,44.32,0,0,0,3.88,15.62c3.61,7.71,9.56,13.42,17.21,13.77v0l45.1,0,.06-21.07H413.52V194l60.14-.1.06,60.13-64,.06c-16.29-.48-29.31-10.26-35.95-24.48A64.33,64.33,0,0,1,368.05,207a61.61,61.61,0,0,1,2.85-23.45c5-14.88,16.12-25.95,34.28-28.89l1-.16h59.28Z" transform="translate(-58 -21.75)"/><polygon class="cls-3" points="441.51 132.66 441.49 211.4 501.56 211.31 501.6 232.7 422.21 232.7 422.15 132.66 441.51 132.66"/><path class="cls-3" d="M600.82,254.65c-20.79-.26-34.2-13.37-40.46-29.16a57.89,57.89,0,0,1-3.92-20.7A60.2,60.2,0,0,1,560,184c6.1-16.83,19.61-28.62,40.78-29.53l.39,0H633.4l1.06.23c18,4,30.75,12.3,37.83,24.5a49.92,49.92,0,0,1,6.76,25.24,49.1,49.1,0,0,1-6.92,25.1,53.9,53.9,0,0,1-36,25.34l-1,.21h-1l-33.26-.41Zm-22.05-36.46c3.47,8.76,10.86,15.44,22.28,15.58l32.18.39c10.47-2.35,17.78-7.92,21.9-14.81a29.21,29.21,0,0,0,4.12-14.93,30.3,30.3,0,0,0-4.11-15.3c-4.33-7.45-12.19-13.63-23.71-16.4H601.35v0c-11.6.66-19.26,8.39-22.76,18.07a40.31,40.31,0,0,0-2.35,13.94A37.63,37.63,0,0,0,578.77,218.19Z" transform="translate(-58 -21.75)"/><path class="cls-3" d="M705.43,172.77v62.39h62.48a11.3,11.3,0,0,0,4.23-4.73,15.28,15.28,0,0,0,1.56-6,14.76,14.76,0,0,0-1-6.19,13.71,13.71,0,0,0-5.2-6.4H721.18V191.94h46.37a12.72,12.72,0,0,0,5.06-5.95,9.16,9.16,0,0,0,.64-3.69,9,9,0,0,0-1-3.64v0c-1.28-2.58-3.88-4.15-7.93-6l-58.91.12ZM685.55,245.1V163.24l-.06-8.79,83.58,0,.9.38c9.89,3.79,16.52,10,20.06,17.17h0c1.84,3.69,2.83,5.51,3,9.5a28.91,28.91,0,0,1-1.88,11.62,31,31,0,0,1-5.28,8.89,33,33,0,0,1,5.33,9.05,34.68,34.68,0,0,1,2.28,14.5,35.22,35.22,0,0,1-3.65,13.78c-3.61,7.2-10.34,14.69-19.75,14.6H695.49l-9.94.09Z" transform="translate(-58 -21.75)"/><polygon class="cls-3" points="717 232.26 779.45 132.2 792.6 132.2 854.75 232.22 826.46 232.22 813.26 209.19 767.85 209.19 776.8 189.32 801.86 189.32 784.87 159.66 740.67 232.22 717 232.26"/><polygon class="cls-3" points="874.21 132.31 874.25 210.36 934.06 210.16 934.06 232.12 855.7 232.24 855.62 132.25 874.21 132.31"/><path class="cls-3" d="M1001.62,254.38v-100l9.73.07,68.36.51h1.61l1.43.5c11.58,4,17.5,15.74,19.07,28.54a61.88,61.88,0,0,1-.3,16.89,45.39,45.39,0,0,1-5.06,15.27c-4,6.94-9.83,11.2-17.28,10.82H1021v27.43ZM1021,174.27v32.81h58.35c1.25.12,2.73-7.18,3.09-9.41a41.5,41.5,0,0,0,.23-11.3c-.65-5.27-2.27-9.92-5.05-11.68Z" transform="translate(-58 -21.75)"/><path class="cls-3" d="M1110.14,254.35l-.66-76.09v-.9l0-.34a24.83,24.83,0,0,1,8.39-15.47,29.72,29.72,0,0,1,15.73-7.16l.9-.12h53.82l.9.16a27.47,27.47,0,0,1,13,5.48,20.52,20.52,0,0,1,7.48,13.69l.08.54v.78l.59,79.48-19.3.08c0-3.21,0-18.49-.11-34.69h-61.76l.2,34.48-19.3.08Zm80.72-54.44c-.12-12.94-.32-23.11-.63-23.37-.18-1.79-1.54-2.48-3.33-2.39h-53.23c-2.33.47-4.1,1.43-4.67,4l.12,21.71Z" transform="translate(-58 -21.75)"/><path class="cls-3" d="M1230.83,153.94h79.72c5.82.93,9.6,3.75,9.68,9.94l-.2,70.59h22.43v19.88H1230.59c-6.12-1.44-10.23-4.17-9.69-9.94,0-27.93.24-52.59.24-80.53-.34-5.14,2.18-8.82,9.69-9.94Zm70,19.88h-60.33l-.24,60.65h60.33Z" transform="translate(-58 -21.75)"/><polygon class="cls-2" points="260.15 221.39 261.43 132.49 222.68 109.83 222.67 199.84 260.15 221.39"/></svg>