<?xml version="1.0" encoding="UTF-8" standalone="no"?>
<svg
   xmlns:dc="http://purl.org/dc/elements/1.1/"
   xmlns:cc="http://creativecommons.org/ns#"
   xmlns:rdf="http://www.w3.org/1999/02/22-rdf-syntax-ns#"
   xmlns:svg="http://www.w3.org/2000/svg"
   xmlns="http://www.w3.org/2000/svg"
   xmlns:sodipodi="http://sodipodi.sourceforge.net/DTD/sodipodi-0.dtd"
   xmlns:inkscape="http://www.inkscape.org/namespaces/inkscape"
   id="Capa_14_copia"
   data-name="Capa 14 copia"
   viewBox="0 0 330.00001 298.01"
   version="1.1"
   sodipodi:docname="globalpaq_logo_cuadrito.svg"
   width="330"
   height="298.01001"
   inkscape:version="1.0.2-2 (e86c870879, 2021-01-15)">
  <metadata
     id="metadata98">
    <rdf:RDF>
      <cc:Work
         rdf:about="">
        <dc:format>image/svg+xml</dc:format>
        <dc:type
           rdf:resource="http://purl.org/dc/dcmitype/StillImage" />
        <dc:title></dc:title>
      </cc:Work>
    </rdf:RDF>
  </metadata>
  <sodipodi:namedview
     pagecolor="#ffffff"
     bordercolor="#666666"
     borderopacity="1"
     objecttolerance="10"
     gridtolerance="10"
     guidetolerance="10"
     inkscape:pageopacity="0"
     inkscape:pageshadow="2"
     inkscape:window-width="1920"
     inkscape:window-height="1001"
     id="namedview96"
     showgrid="false"
     inkscape:zoom="0.89065359"
     inkscape:cx="642.225"
     inkscape:cy="150.505"
     inkscape:window-x="-9"
     inkscape:window-y="-9"
     inkscape:window-maximized="1"
     inkscape:current-layer="Capa_14_copia" />
  <defs
     id="defs57">
    <style
       id="style55">.cls-1,.cls-3{fill:#07326b;}.cls-1,.cls-2{fill-rule:evenodd;}.cls-2{fill:#f77f00;}</style>
  </defs>
  <polygon
     class="cls-1"
     points="132.35,239.15 207.93,196.56 209.32,102.98 132.84,145.36 "
     id="polygon59" />
  <polygon
     class="cls-1"
     points="129.67,145.35 54.21,103.48 55.14,195.17 129.19,239.09 "
     id="polygon61" />
  <polygon
     class="cls-2"
     points="258.61,224.15 221.11,202.59 132.39,255.11 134.42,301.01 "
     id="polygon63" />
  <polygon
     class="cls-2"
     points="224.58,107.61 262.68,129.82 314.14,99.43 315,98.91 315.84,99.45 325.13,105.53 324.5,75.41 272.74,76.3 273.29,76.62 275.67,78.01 273.27,79.37 "
     id="polygon65" />
  <polygon
     class="cls-2"
     points="257.82,72.9 129.28,0 1.53,74.94 40.03,96.93 129.82,43.96 130.62,43.49 131.42,43.95 219.92,95.58 "
     id="polygon67" />
  <path
     class="cls-2"
     d="m 58,99.45 2.41,147 128.84,76.21 -2,-45.76 -89.11,-51.51 v 0 a 1.58,1.58 0 0 1 -0.79,-1.5 L 96.48,121.42 Z"
     transform="translate(-58,-21.75)"
     id="path69" />
  <polygon
     class="cls-2"
     points="209.21,110.37 167.05,134.97 167.05,175.27 208.51,150.57 "
     id="polygon71" />
  <polygon
     class="cls-1"
     points="131.26,142.62 207.62,100.31 130.27,59.45 55.96,101.08 "
     id="polygon73" />
  <polygon
     class="cls-2"
     points="261.43,132.49 222.68,109.83 222.67,199.84 260.15,221.39 "
     id="polygon93" />
</svg>
