<svg height="512" viewBox="0 0 64 64" width="512" xmlns="http://www.w3.org/2000/svg"><g id="Icons"><g><path d="m43.5 43.24h1v2.76h-1z"/><path d="m28.354 41.646-.707.707 2 2c.195.195.512.195.707 0l4-4-.707-.707-3.647 3.647z"/><path d="m35.5 20v8.425c0 3.765 1.672 7.291 4.586 9.675l4.965 4.061c.544.448 1.346.452 1.898 0l4.965-4.061c2.914-2.384 4.586-5.911 4.586-9.675v-8.425c0-1.378-1.121-2.5-2.5-2.5h-16c-1.379 0-2.5 1.122-2.5 2.5zm20 0v8.425c0 3.463-1.538 6.708-4.219 8.901l-4.965 4.062c-.184.149-.449.15-.633 0l-4.965-4.061c-2.681-2.193-4.219-5.438-4.219-8.901v-8.426c0-.827.673-1.5 1.5-1.5h16c.828 0 1.501.673 1.501 1.5z"/><path d="m41 30.5h2.5v2.5c0 .827.673 1.5 1.5 1.5h2c.827 0 1.5-.673 1.5-1.5v-2.5h2.5c.827 0 1.5-.673 1.5-1.5v-2c0-.827-.673-1.5-1.5-1.5h-2.5v-2.5c0-.827-.673-1.5-1.5-1.5h-2c-.827 0-1.5.673-1.5 1.5v2.5h-2.5c-.827 0-1.5.673-1.5 1.5v2c0 .827.673 1.5 1.5 1.5zm-.5-3.5c0-.276.225-.5.5-.5h3c.276 0 .5-.224.5-.5v-3c0-.276.225-.5.5-.5h2c.275 0 .5.224.5.5v3c0 .276.224.5.5.5h3c.275 0 .5.224.5.5v2c0 .276-.225.5-.5.5h-3c-.276 0-.5.224-.5.5v3c0 .276-.225.5-.5.5h-2c-.275 0-.5-.224-.5-.5v-3c0-.276-.224-.5-.5-.5h-3c-.275 0-.5-.224-.5-.5z"/><path d="m7.5 10v7c0 .827.673 1.5 1.5 1.5h1v-1h-1c-.275 0-.5-.224-.5-.5v-7c0-.827.673-1.5 1.5-1.5s1.5.673 1.5 1.5v44c0 1.378 1.121 2.5 2.5 2.5h32c1.379 0 2.5-1.122 2.5-2.5v-5c0-.827-.673-1.5-1.5-1.5h-30c-.827 0-1.5.673-1.5 1.5v5c0 .827-.673 1.5-1.5 1.5s-1.5-.673-1.5-1.5v-44c0-.565-.195-1.081-.513-1.5h30.013c.827 0 1.5.673 1.5 1.5v6h1v-6c0-1.378-1.121-2.5-2.5-2.5h-32c-1.379 0-2.5 1.122-2.5 2.5zm9 44v-5c0-.276.225-.5.5-.5h30c.275 0 .5.224.5.5v5c0 .827-.673 1.5-1.5 1.5h-30.001c.314-.418.501-.937.501-1.5z"/><path d="m33.646 15.646-3.646 3.647-1.646-1.646-.707.707 2 2c.195.195.512.195.707 0l4-4z"/><path d="m33.646 27.646-3.646 3.647-1.646-1.646-.707.707 2 2c.195.195.512.195.707 0l4-4z"/><path d="m16 15.5h10v1h-10z"/><path d="m16 17.5h8v1h-8z"/><path d="m16 27.5h10v1h-10z"/><path d="m16 29.5h8v1h-8z"/><path d="m16 39.5h10v1h-10z"/><path d="m16 41.5h8v1h-8z"/></g></g></svg>