<?xml version="1.0" encoding="iso-8859-1"?>
<!-- Generator: Adobe Illustrator 19.0.0, SVG Export Plug-In . SVG Version: 6.00 Build 0)  -->
<svg version="1.1" id="Capa_1" xmlns="http://www.w3.org/2000/svg" xmlns:xlink="http://www.w3.org/1999/xlink" x="0px" y="0px"
	 viewBox="0 0 480 480" style="enable-background:new 0 0 480 480;" xml:space="preserve">
<g>
	<g>
		<g>
			<path d="M456,144h-16v-16c0-13.255-10.745-24-24-24h-16V88c0-13.255-10.745-24-24-24H72c-0.152,0-0.296,0.072-0.448,0.08
				c-0.619,0.04-1.231,0.153-1.824,0.336c-0.252,0.059-0.5,0.131-0.744,0.216c-0.822,0.319-1.584,0.774-2.256,1.344l-64,56
				c-0.75,0.677-1.364,1.492-1.808,2.4c-0.114,0.24-0.216,0.485-0.304,0.736c-0.296,0.768-0.471,1.578-0.52,2.4
				c0,0.152-0.096,0.288-0.096,0.44V312c0,13.255,10.745,24,24,24h16v16c0,13.255,10.745,24,24,24h16v16c0,13.255,10.745,24,24,24
				h352c13.255,0,24-10.745,24-24V168C480,154.745,469.255,144,456,144z M64,89.6V112c0,4.418-3.582,8-8,8H29.296L64,89.6z M24,320
				c-4.418,0-8-3.582-8-8V136h40c13.255,0,24-10.745,24-24V80h296c4.418,0,8,3.582,8,8v224c0,4.418-3.582,8-8,8H24z M64,360
				c-4.418,0-8-3.582-8-8v-16h320c13.255,0,24-10.745,24-24V120h16c4.418,0,8,3.582,8,8v224c0,4.418-3.582,8-8,8H64z M464,392
				c0,4.418-3.582,8-8,8H104c-4.418,0-8-3.582-8-8v-16h320c13.255,0,24-10.745,24-24V160h16c4.418,0,8,3.582,8,8V392z"/>
			<rect x="32" y="296" width="16" height="16"/>
			<rect x="64" y="296" width="16" height="16"/>
			<rect x="96" y="296" width="16" height="16"/>
			<rect x="128" y="296" width="16" height="16"/>
			<rect x="160" y="296" width="16" height="16"/>
			<rect x="192" y="296" width="16" height="16"/>
			<rect x="224" y="296" width="16" height="16"/>
			<rect x="256" y="296" width="16" height="16"/>
			<rect x="288" y="296" width="16" height="16"/>
			<rect x="320" y="296" width="16" height="16"/>
			<rect x="352" y="296" width="16" height="16"/>
			<rect x="96" y="136" width="128" height="16"/>
			<rect x="240" y="136" width="64" height="16"/>
			<rect x="96" y="168" width="144" height="16"/>
			<rect x="256" y="168" width="48" height="16"/>
			<rect x="96" y="200" width="208" height="16"/>
			<rect x="96" y="232" width="208" height="16"/>
		</g>
	</g>
</g>
<g>
</g>
<g>
</g>
<g>
</g>
<g>
</g>
<g>
</g>
<g>
</g>
<g>
</g>
<g>
</g>
<g>
</g>
<g>
</g>
<g>
</g>
<g>
</g>
<g>
</g>
<g>
</g>
<g>
</g>
</svg>
