<svg id="filled_outline" height="512" viewBox="0 0 512 512" width="512" xmlns="http://www.w3.org/2000/svg" data-name="filled outline"><path d="m408 130.51v205.49l-40 24h-264v-312a24.00619 24.00619 0 0 1 24-24h166.62012a24.17391 24.17391 0 0 1 16.27978 6.36l89.3801 82.51a24.0914 24.0914 0 0 1 7.72 17.64z" fill="#548aff"/><path d="m192 360h280v128h-280z" fill="#02c26a"/><rect fill="#ef5e3b" height="256" rx="32" width="192" x="40" y="232"/><path d="m72 264h128v48h-128z" fill="#8be0f0"/><path d="m320 360h64v128h-64z" fill="#ffc431"/><path d="m296 360h16a40 40 0 0 0 40-40v-24h80v24a40 40 0 0 1 -40 40z" fill="#00a64f"/><path d="m405.57007 120h-77.57007a24.00619 24.00619 0 0 1 -24-24v-70.08a23.73922 23.73922 0 0 1 6.8999 4.44l89.3801 82.51a23.87075 23.87075 0 0 1 5.29007 7.13z" fill="#7dafff"/><path d="m72 496h400a8.00008 8.00008 0 0 0 8-8v-128a8.00008 8.00008 0 0 0 -8-8h-44.26123a47.80135 47.80135 0 0 0 12.26123-32v-24a8.00008 8.00008 0 0 0 -8-8h-16v-157.49219a32.08637 32.08637 0 0 0 -10.2959-23.51367l-89.38281-82.50781a31.912 31.912 0 0 0 -21.70508-8.48633h-166.61621a32.03635 32.03635 0 0 0 -32 32v176h-24a40.04552 40.04552 0 0 0 -40 40v192a40.04552 40.04552 0 0 0 40 40zm280-208a8.00008 8.00008 0 0 0 -8 8v24a32.03635 32.03635 0 0 1 -32 32v-104h48v40zm40 144h72v16h-72zm0-16v-16h72v16zm-16 64h-48v-112h48zm-139.3501-232h59.3501v104h-56v-88a39.756 39.756 0 0 0 -3.3501-16zm123.3501-40v24h-48v-24zm0-16h-208v-32h208zm-208 16h144v24h-72v.022a39.79015 39.79015 0 0 0 -24-8.022h-48zm88 248v-88h72v16h-56v16h56v16h-56v16h56v16h-56v16h56v16h-80.022a39.79015 39.79015 0 0 0 8.022-24zm152 24v-16h72v16zm72-96h-72v-16h72zm-40-64a32.03635 32.03635 0 0 1 -32 32h-44.26123a47.80135 47.80135 0 0 0 12.26123-32v-16h64zm-312-272a16.01833 16.01833 0 0 1 16-16h166.61621c.46436 0 .92529.025 1.38379.06451v63.93549a32.03635 32.03635 0 0 0 32 32h40v-16h-40a16.01833 16.01833 0 0 1 -16-16v-53.728l82.85254 76.47943a16.04168 16.04168 0 0 1 5.14746 11.75638v157.49219h-24v-136a8.00008 8.00008 0 0 0 -8-8h-224a8.00008 8.00008 0 0 0 -8 8v72h-24zm-64 216a24.0275 24.0275 0 0 1 24-24h128a24.0275 24.0275 0 0 1 24 24v192a24.0275 24.0275 0 0 1 -24 24h-128a24.0275 24.0275 0 0 1 -24-24z"/><path d="m72 320h128a8.00008 8.00008 0 0 0 8-8v-48a8.00008 8.00008 0 0 0 -8-8h-128a8.00008 8.00008 0 0 0 -8 8v48a8.00008 8.00008 0 0 0 8 8zm8-48h112v32h-112z"/><path d="m72 344h32v16h-32z"/><path d="m120 344h32v16h-32z"/><path d="m168 344h32v16h-32z"/><path d="m72 376h32v16h-32z"/><path d="m120 376h32v16h-32z"/><path d="m168 376h32v16h-32z"/><path d="m72 408h32v16h-32z"/><path d="m120 408h32v16h-32z"/><path d="m168 408h32v16h-32z"/><path d="m72 440h32v16h-32z"/><path d="m120 440h32v16h-32z"/><path d="m168 440h32v16h-32z"/><path d="m192 96h24v16h-24z"/><path d="m136 96h40v16h-40z"/><path d="m224 64h24v16h-24z"/><path d="m136 64h72v16h-72z"/></svg>