<svg id="Capa_1" enable-background="new 0 0 512 512" height="512" viewBox="0 0 512 512" width="512" xmlns="http://www.w3.org/2000/svg"><g><g><path d="m222.968 429.419h-66.065c-9.109 0-16.516 7.407-16.516 16.516v16.516c0 9.109 7.407 16.516 16.516 16.516h66.065c9.109 0 16.516-7.407 16.516-16.516v-16.516c0-9.108-7.408-16.516-16.516-16.516zm-66.065 33.033v-16.516h66.065l.008 16.516z"/><circle cx="189.935" cy="74.323" r="8.258"/><path d="m487.226 0h-214.71c-13.659 0-24.774 11.115-24.774 24.774v8.258h-148.645c-22.767 0-41.29 18.523-41.29 41.29v74.323h-33.033c-13.659 0-24.774 11.116-24.774 24.774v66.065c0 13.659 11.115 24.774 24.774 24.774h33.032v206.452c0 22.767 18.523 41.29 41.29 41.29h181.677c22.767 0 41.29-18.523 41.29-41.29v-41.29h33.032v14.567c0 10.182 8.283 18.465 18.465 18.465 7.044 0 13.37-3.914 16.516-10.207l11.413-22.825h52.703c13.659 0 24.774-11.115 24.774-24.774v-66.065c0-13.659-11.115-24.774-24.774-24.774h-132.127v-66.065h33.032v14.567c0 10.182 8.283 18.465 18.465 18.465 7.044 0 13.37-3.914 16.516-10.207l11.413-22.825h85.735c13.659 0 24.774-11.115 24.774-24.774v-198.194c0-13.659-11.115-24.774-24.774-24.774zm-239.484 99.097h-24.989c5.244-6.92 8.473-15.443 8.473-24.774v-24.775h16.516zm-82.581-24.774v-24.775h49.548v24.774c0 13.659-11.115 24.774-24.774 24.774-13.658.001-24.774-11.115-24.774-24.773zm-66.064-24.775h49.548v24.774c0 9.332 3.229 17.854 8.473 24.774h-82.795v-24.773c0-13.659 11.115-24.775 24.774-24.775zm-82.581 189.936v-66.065c0-4.55 3.708-8.258 8.258-8.258h181.677c4.55 0 8.258 3.708 8.258 8.258v66.065c0 4.55-3.708 8.258-8.258 8.258h-66.065v31.083c0 1.825-2.882 2.51-3.691.867l-15.979-31.95h-95.942c-4.55 0-8.258-3.708-8.258-8.258zm289.032 231.226c0 13.659-11.115 24.774-24.774 24.774h-181.677c-13.659 0-24.774-11.115-24.774-24.774v-57.806h174.939c3.419 9.588 12.503 16.516 23.255 16.516h33.032v41.29zm156.904-132.129v66.065c0 4.558-3.708 8.258-8.258 8.258h-62.91l-15.979 31.95c-.801 1.627-3.691.941-3.691-.867v-31.083h-99.097c-4.55 0-8.258-3.7-8.258-8.258v-66.065c0-4.558 3.708-8.258 8.258-8.258h181.677c4.55 0 8.258 3.699 8.258 8.258zm-156.904-24.775h-33.032c-13.659 0-24.774 11.115-24.774 24.774v57.806h-173.419v-132.128h36.187l11.413 22.825c3.146 6.301 9.48 10.207 16.516 10.207 10.182 0 18.465-8.283 18.465-18.465v-14.567h49.548c13.659 0 24.774-11.115 24.774-24.774v-66.065c0-13.659-11.115-24.774-24.774-24.774h-132.129v-33.032h173.419v107.355c0 13.659 11.115 24.774 24.774 24.774h33.032zm189.936-90.838c0 4.55-3.708 8.258-8.258 8.258h-95.942l-15.979 31.95c-.801 1.61-3.691.941-3.691-.867v-31.083h-99.097c-4.55 0-8.258-3.708-8.258-8.258v-198.194c0-4.55 3.708-8.258 8.258-8.258h214.71c4.55 0 8.258 3.708 8.258 8.258v198.194z"/><path d="m305.548 396.387c13.659 0 24.774-11.115 24.774-24.774s-11.115-24.774-24.774-24.774-24.774 11.115-24.774 24.774 11.116 24.774 24.774 24.774zm0-33.032c4.55 0 8.258 3.7 8.258 8.258s-3.708 8.258-8.258 8.258-8.258-3.7-8.258-8.258 3.708-8.258 8.258-8.258z"/><path d="m346.839 346.839h99.097v16.516h-99.097z"/><path d="m346.839 379.871h99.097v16.516h-99.097z"/><path d="m57.806 181.677c-13.659 0-24.774 11.115-24.774 24.774s11.115 24.774 24.774 24.774 24.774-11.115 24.774-24.774c.001-13.658-11.115-24.774-24.774-24.774zm0 33.033c-4.55 0-8.258-3.708-8.258-8.258s3.708-8.258 8.258-8.258 8.258 3.708 8.258 8.258c.001 4.55-3.707 8.258-8.258 8.258z"/><path d="m99.097 181.677h99.097v16.516h-99.097z"/><path d="m99.097 214.71h99.097v16.516h-99.097z"/><path d="m400.12 44.527-.537-.941c-4.402-6.606-11.776-10.554-19.712-10.554s-15.31 3.947-19.712 10.546l-60.655 123.4c-1.445 2.956-2.213 6.26-2.213 9.555 0 11.941 9.72 21.661 21.661 21.661h31.207c6.35 10.265 17.466 16.516 29.713 16.516s23.362-6.251 29.712-16.516h31.207c11.941 0 21.661-9.72 21.661-21.661 0-3.295-.768-6.598-2.221-9.546zm-20.249 153.667c-6.639 0-12.552-3.567-15.855-9.249l15.855-52.852 15.855 52.852c-3.303 5.681-9.216 9.249-15.855 9.249zm60.92-16.517h-30.002l-23.007-76.693c-1.049-3.493-4.269-5.888-7.911-5.888s-6.862 2.395-7.911 5.888l-23.007 76.693h-30.002c-2.841 0-5.145-2.304-5.145-5.145 0-.785.182-1.569.52-2.271l59.83-121.881c2.7-3.567 8.721-3.567 11.421 0l59.83 121.881c.347.702.529 1.486.529 2.271-.001 2.841-2.305 5.145-5.145 5.145z"/></g></g></svg>